inDegrees=yes
name=ik_lifting_orientations
DataType=double
version=3
OpenSimVersion=4.5-2024-01-10-34fd6af
endheader
time	pelvis_tilt	pelvis_list	pelvis_rotation	pelvis_tx	pelvis_ty	pelvis_tz	hip_flexion_r	hip_adduction_r	hip_rotation_r	knee_angle_r	knee_angle_r_beta	ankle_angle_r	subtalar_angle_r	mtp_angle_r	hip_flexion_l	hip_adduction_l	hip_rotation_l	knee_angle_l	knee_angle_l_beta	ankle_angle_l	subtalar_angle_l	mtp_angle_l	lumbar_extension	lumbar_bending	lumbar_rotation	arm_flex_r	arm_add_r	arm_rot_r	elbow_flex_r	pro_sup_r	wrist_flex_r	wrist_dev_r	arm_flex_l	arm_add_l	arm_rot_l	elbow_flex_l	pro_sup_l	wrist_flex_l	wrist_dev_l
3.5	-1.716409753785052	3.640486148335918	-22.04818026764065	0	0.9399999998497812	0	43.99706468733964	-10.01181627530264	0	59.71909203756141	1.042294782356976	-5.001591010544735	0	0	43.99706468733964	-10.01181627530264	0	59.71909203756141	1.042294782356976	-5.001591010544735	0	0	-3.538422115475457	-17.1027156600282	2.090742204961991	35.07555261544889	16.33640157154631	-12.10640655186667	31.98047337296673	45.0333527505453	0	0	0	-12.37677894654999	0	75.70872872091364	45.0333527505453	0	0
3.51	-2.307488393225945	3.618856208314277	-21.83934682849064	0	0.9399999998497812	0	43.99759856050423	-10.0117943596184	0	59.71920965936867	1.042296835244785	-5.001587163256557	0	0	43.99759856050423	-10.0117943596184	0	59.71920965936867	1.042296835244785	-5.001587163256557	0	0	-3.156113576295388	-17.45210979710351	1.850919989656489	37.09225000018833	16.94577038219341	-13.08083312727146	30.3455779167846	45.03330379397243	0	0	0	-12.37749508109593	0	75.70835158575815	45.03330379397243	0	0
3.52	-2.317135395608847	3.630306116119805	-21.84500334805699	0	0.9399999998497812	0	43.9978602933022	-10.01178365317859	0	59.71926742932965	1.042297843520812	-5.001585285617539	0	0	43.9978602933022	-10.01178365317859	0	59.71926742932965	1.042297843520812	-5.001585285617539	0	0	-3.186555008659622	-17.97125990798919	1.765468219658243	37.21743627988952	17.40144648842797	-13.33455717817003	30.4708095322468	45.03327985853561	0	0	0	-12.37784667911613	0	75.70816669411828	45.03327985853561	0	0
3.53	-2.329649101611527	3.626896770303608	-21.82773603870722	0	0.9399999998497812	0	43.99815796288841	-10.01177140551675	0	59.71933281109314	1.042298984647856	-5.001583135428315	0	0	43.99815796288841	-10.01177140551675	0	59.71933281109314	1.042298984647856	-5.001583135428315	0	0	-2.138532940519201	-17.3719047932143	1.677501956145444	37.80054227082023	17.26724660612458	-13.30493606148634	28.75952106280589	45.03325250477169	0	0	0	-12.37824518953859	0	75.70795641642664	45.03325250477169	0	0
3.54	-1.808498816072175	2.82280337698765	-21.36494786928216	0	0.9399999998497812	0	43.99850748096281	-10.0117572102255	0	59.71941033120978	1.042300337629128	-5.001580650104303	0	0	43.99850748096281	-10.0117572102255	0	59.71941033120978	1.042300337629128	-5.001580650104303	0	0	-4.222613424358019	-17.95029899275116	1.182522106306051	39.98946521929404	18.06649229553459	-14.63512779261549	29.21133459903646	45.03322072487158	0	0	0	-12.37871642997382	0	75.70770951180114	45.03322072487158	0	0
3.55	-3.484025677414816	3.603074476658469	-21.43730356252973	0	0.9399999998497812	0	43.99885315961877	-10.01174326218718	0	59.71948738012151	1.042301682386323	-5.001578211349784	0	0	43.99885315961877	-10.01174326218718	0	59.71948738012151	1.042301682386323	-5.001578211349784	0	0	-2.395788496269744	-18.61073713986503	1.241868690907187	41.06889200927169	18.18207714826964	-15.32923811386867	28.94933265630227	45.03318946134733	0	0	0	-12.37918419374226	0	75.70746531914837	45.03318946134733	0	0
3.56	-3.489452203252175	3.605647813127172	-21.4451622212334	0	0.9399999998497812	0	43.99928976877717	-10.01172536480645	0	59.7195833921983	1.042303358113184	-5.001575073426452	0	0	43.99928976877717	-10.01172536480645	0	59.7195833921983	1.042303358113184	-5.001575073426452	0	0	-2.383848522296444	-18.61016868363587	1.27007022290942	41.9571708747746	18.1713397996876	-15.68256241191067	28.12893090871436	45.03314945144752	0	0	0	-12.37976941104754	0	75.70715689258029	45.03314945144752	0	0
3.57	-2.930633403948309	3.984357592285766	-21.93115528855819	0	0.9399999998497812	0	43.99949871758673	-10.01171703567215	0	59.71963033804607	1.042304177472798	-5.001573621291155	0	0	43.99949871758673	-10.01171703567215	0	59.71963033804607	1.042304177472798	-5.001573621291155	0	0	-2.61435381372358	-19.16724901704079	1.700672368191035	41.92301350186514	18.16328607663359	-15.64241837421648	28.15391488078734	45.03313073710976	0	0	0	-12.38005384932447	0	75.70700928771241	45.03313073710976	0	0
